<svg width="465" height="383" viewBox="0 0 465 383" fill="none" xmlns="http://www.w3.org/2000/svg">
<path d="M165 182.498C130.5 182.498 80 220.498 73.5 220.498C111.918 285.427 144.117 315.567 205.5 366.998C165.599 304.565 158.43 263.487 165 182.498Z" fill="#E25024" stroke="#E25024"/>
<path d="M302.5 183C337 183 387.5 221 394 221C355.582 285.93 323.383 316.069 262 367.5C301.901 305.067 309.07 263.989 302.5 183Z" fill="#E25024" stroke="#E25024"/>
<path d="M205 195.5C179 146.5 246 126.5 246 198.001C253.62 192.09 267.5 152 246 134C224.5 116 192 127 180.5 152.5C169.5 180 178.406 213.812 222.5 259.001C247.865 287.311 255.444 304.291 239.5 339.501C229.46 359.832 219.636 368.824 198 382.501C239.5 382.501 309.448 320.5 246 250C237 240 217 221.5 205 195.5Z" fill="#2699E4" stroke="#2699E4"/>
<path d="M0.5 198.5C31 236.5 87 217 128.5 161C70.8473 200.964 40.4392 217.049 0.5 198.5Z" fill="#2699E4" stroke="#2699E4"/>
<path d="M464 198.5C433.5 236.5 377.5 217 336 161C393.653 200.964 424.061 217.049 464 198.5Z" fill="#2699E4" stroke="#2699E4"/>
<path d="M274.5 39.9998C274.5 -12.4999 189.5 -12.5 189.5 39.9998C189.5 98.5005 226.5 104.5 232.5 104.5C238.5 104.5 274.5 95.0005 274.5 39.9998Z" fill="#2699E4"/>
<circle cx="273" cy="147" r="11" fill="#2699E4"/>
<path d="M51.9014 195.502C-1.59793 55.5 156.902 -3.99971 200.901 114.002C157.011 120.99 111.402 151 51.9014 195.502Z" fill="#E25024"/>
<path d="M412.902 195.495C466.401 55.4934 307.902 -4.0063 263.902 113.995C307.793 120.984 353.401 150.993 412.902 195.495Z" fill="#E25024"/>
</svg>
