<svg width="92" height="69" viewBox="0 0 92 69" fill="none" xmlns="http://www.w3.org/2000/svg">
<path d="M70.997 22.7201C70.1353 10.0517 59.2372 0 45.965 0C32.6893 0 21.7893 10.0559 20.9323 22.7289C9.06314 24.1775 0 33.9877 0 45.7589C0 58.5739 10.7464 69 23.9558 69H60.3869C61.4231 69 62.2635 68.1847 62.2635 67.1794C62.2635 66.1742 61.4231 65.3589 60.3869 65.3589H23.9558C12.8159 65.3586 3.75311 56.5661 3.75311 45.7589C3.75311 35.3589 12.1454 26.7739 22.8586 26.2147C23.8545 26.1628 24.6345 25.3642 24.6345 24.3969C24.6345 24.3608 24.6335 24.3253 24.6314 24.2892C24.6595 12.8997 34.2187 3.64114 45.965 3.64114C57.7131 3.64114 67.2739 12.9012 67.2986 24.2934C67.297 24.3286 67.2958 24.3656 67.2958 24.3932C67.2958 25.363 68.0792 26.1625 69.0773 26.2114C79.8268 26.7397 88.2469 35.3258 88.2469 45.7586C88.2469 51.6833 85.5265 57.2285 80.7832 60.9719C79.9791 61.6063 79.8578 62.753 80.5117 63.5328C81.1657 64.3129 82.3476 64.4307 83.1514 63.7962C88.7748 59.3582 92 52.7839 92 45.7583C92 33.951 82.9062 24.1371 70.997 22.7201Z" fill="#1976D2"/>
<path d="M44.0884 32.6793V55.8949C44.0884 56.9002 44.9288 57.7155 45.9649 57.7155C47.0011 57.7155 47.8415 56.9002 47.8415 55.8949V32.6793C47.8415 31.674 47.0011 30.8587 45.9649 30.8587C44.9288 30.8587 44.0884 31.674 44.0884 32.6793Z" fill="#1976D2"/>
<path d="M56.698 36.0552C57.1783 36.0552 57.6584 35.8774 58.025 35.5221C58.7578 34.8112 58.7578 33.6584 58.025 32.9475L47.292 22.5347C46.5592 21.8238 45.3708 21.8238 44.6383 22.5347L33.9053 32.9475C33.1725 33.6584 33.1725 34.8112 33.9053 35.5221C34.6381 36.233 35.8266 36.233 36.5591 35.5221L45.965 26.3968L55.3709 35.5221C55.7375 35.8774 56.2179 36.0552 56.698 36.0552Z" fill="#1976D2"/>
</svg>
